name Walk2.mot
datacolumns 19
datarows 27
range 1.01000000 1.14000000
endheader

                time	   L_ground_force_vx	   L_ground_force_vy	   L_ground_force_vz	   L_ground_force_px	   L_ground_force_py	   L_ground_force_pz	   R_ground_force_vx	   R_ground_force_vy	   R_ground_force_vz	   R_ground_force_px	   R_ground_force_py	   R_ground_force_pz	   L_ground_torque_x	   L_ground_torque_y	   L_ground_torque_z	   R_ground_torque_x	   R_ground_torque_y	   R_ground_torque_z	
          1.01000000	         -9.01063415	        107.81107800	         -5.74165898	         -0.00147675	          0.00000000	         -0.00209228	          0.00000002	         -0.00000010	          0.00000000	         -0.00000000	          0.00000000	         -0.00000000	          0.00000000	          0.23183784	          0.00000000	          0.00000000	          0.00000000	          0.00000000	
          1.01500000	        -14.92934146	        153.29025308	         -8.23541854	         -0.04946705	          0.00000000	         -0.01223846	          0.00000002	         -0.00000010	          0.00000000	         -0.00000000	          0.00000000	         -0.00000000	          0.00000000	          0.32690929	          0.00000000	          0.00000000	          0.00000000	          0.00000000	
          1.02000000	        -22.33368549	        204.01258931	        -10.84487063	         -0.09434658	          0.00000000	         -0.02185494	          0.00000002	         -0.00000009	          0.00000000	         -0.00000000	          0.00000000	         -0.00000000	          0.00000000	          0.44271753	          0.00000000	          0.00000000	          0.00000000	          0.00000000	
          1.02500000	        -31.13875428	        257.12461107	        -13.37567291	         -0.13363867	          0.00000000	         -0.03041722	          0.00000001	         -0.00000007	          0.00000000	          0.00000000	          0.00000000	          0.00000000	          0.00000000	          0.57533871	          0.00000000	          0.00000000	          0.00000000	          0.00000000	
          1.03000000	        -41.04201436	        309.37116516	        -15.60552189	         -0.16610135	          0.00000000	         -0.03765322	          0.00000000	         -0.00000002	         -0.00000000	          0.00000000	          0.00000000	          0.00000000	          0.00000000	          0.71844327	          0.00000000	          0.00000000	         -0.00000000	          0.00000000	
          1.03500000	        -51.49801854	        358.33875948	        -17.33633274	         -0.19149784	          0.00000000	         -0.04349966	         -0.00000001	          0.00000006	         -0.00000000	          0.00000000	          0.00000000	          0.00000000	          0.00000000	          0.86564431	          0.00000000	          0.00000000	         -0.00000000	          0.00000000	
          1.04000000	        -61.81453039	        402.48189254	        -18.43808336	         -0.21025357	          0.00000000	         -0.04802996	         -0.00000004	          0.00000018	         -0.00000000	          0.00000000	          0.00000000	          0.00000000	          0.00000000	          1.01117976	          0.00000000	          0.00000000	         -0.00000000	          0.00000000	
          1.04500000	        -71.30085779	        440.88350530	        -18.85355006	         -0.22317744	          0.00000000	         -0.05139687	         -0.00000007	          0.00000034	         -0.00000000	          0.00000000	          0.00000000	          0.00000000	          0.00000000	          1.14995534	          0.00000000	          0.00000000	         -0.00000000	          0.00000000	
          1.05000000	        -79.41884843	        473.19442714	        -18.58367351	         -0.23125270	          0.00000000	         -0.05379088	         -0.00000012	          0.00000055	         -0.00000000	          0.00000000	          0.00000000	          0.00000000	          0.00000000	          1.27747841	          0.00000000	          0.00000000	         -0.00000000	          0.00000000	
          1.05500000	        -85.89958744	        499.51945334	        -17.65925289	         -0.23549017	          0.00000000	         -0.05541275	         -0.00000017	          0.00000081	         -0.00000000	          0.00000000	          0.00000000	          0.00000000	          0.00000000	          1.38999562	          0.00000000	          0.00000000	         -0.00000000	          0.00000000	
          1.06000000	        -90.75622375	        520.31240873	        -16.11818900	         -0.23683232	          0.00000000	         -0.05645624	         -0.00000023	          0.00000111	         -0.00000001	          0.00000000	          0.00000000	          0.00000000	          0.00000000	          1.48476825	          0.00000000	          0.00000000	         -0.00000000	          0.00000000	
          1.06500000	        -94.18428352	        536.30514868	        -14.00224633	         -0.23610106	          0.00000000	         -0.05709641	         -0.00000030	          0.00000145	         -0.00000001	          0.00000000	          0.00000000	          0.00000000	          0.00000000	          1.56016459	          0.00000000	          0.00000000	         -0.00000000	          0.00000000	
          1.07000000	        -96.43596411	        548.42844663	        -11.36131883	         -0.23397615	          0.00000000	         -0.05748054	         -0.00000038	          0.00000179	         -0.00000001	          0.00000000	          0.00000000	          0.00000000	          0.00000000	          1.61616691	          0.00000000	          0.00000000	         -0.00000000	          0.00000000	
          1.07500000	        -97.74860201	        557.70619528	         -8.25761562	         -0.23099347	          0.00000000	         -0.05772496	         -0.00000044	          0.00000211	         -0.00000001	          0.00000000	          0.00000000	          0.00000000	          0.00000000	          1.65450735	          0.00000000	          0.00000000	         -0.00000000	          0.00000000	
          1.08000000	        -98.33475904	        565.11988696	         -4.77241051	         -0.22755750	          0.00000000	         -0.05791378	         -0.00000049	          0.00000234	         -0.00000001	          0.00000000	          0.00000000	          0.00000000	          0.00000000	          1.67817385	          0.00000000	          0.00000000	         -0.00000000	          0.00000000	
          1.08500000	        -98.38810734	        571.47502057	         -1.01219140	         -0.22396207	          0.00000000	         -0.05809891	         -0.00000051	          0.00000242	         -0.00000001	          0.00000000	          0.00000000	          0.00000000	          0.00000000	          1.69118652	          0.00000000	          0.00000000	         -0.00000000	          0.00000000	
          1.09000000	        -98.06663686	        577.31090941	          2.89044819	         -0.22041527	          0.00000000	         -0.05830547	         -0.00000047	          0.00000224	         -0.00000001	          0.00000000	          0.00000000	          0.00000000	          0.00000000	          1.69810730	          0.00000000	          0.00000000	         -0.00000000	          0.00000000	
          1.09500000	        -97.46084210	        582.90491063	          6.78621924	         -0.21706089	          0.00000000	         -0.05853960	         -0.00000035	          0.00000169	         -0.00000001	         -0.00000000	          0.00000000	         -0.00000000	          0.00000000	          1.70302494	          0.00000000	          0.00000000	         -0.00000000	          0.00000000	
          1.10000000	        -96.58552748	        588.37339966	         10.53029523	         -0.21399118	          0.00000000	         -0.05879436	         -0.00000013	          0.00000061	          0.00000000	         -0.00000000	          0.00000000	         -0.00000000	          0.00000000	          1.70894027	          0.00000000	          0.00000000	         -0.00000000	          0.00000000	
          1.10500000	        -95.41518945	        593.75819585	         13.99809082	         -0.21125775	          0.00000000	         -0.05905485	          0.00000024	         -0.00000114	          0.00000001	         -0.00000001	          0.00000000	         -0.00000000	          0.00000000	          1.71760903	          0.00000000	          0.00000000	          0.00000000	          0.00000000	
          1.11000000	        -93.92859496	        599.04014396	         17.08800652	         -0.20888093	          0.00000000	         -0.05930368	          0.00000078	         -0.00000373	          0.00000002	         -0.00000001	          0.00000000	         -0.00000000	          0.00000000	          1.72945932	          0.00000000	          0.00000000	          0.00000001	          0.00000000	
          1.11500000	        -92.12501285	        604.13683841	         19.72135008	         -0.20685800	          0.00000000	         -0.05952580	          0.00000153	         -0.00000731	          0.00000004	         -0.00000001	          0.00000000	         -0.00000000	          0.00000000	          1.74383815	          0.00000000	          0.00000000	          0.00000002	          0.00000000	
          1.12000000	        -90.01492460	        608.92584767	         21.84406251	         -0.20517081	          0.00000000	         -0.05970893	          0.00000251	         -0.00001199	          0.00000007	         -0.00000002	          0.00000000	         -0.00000000	          0.00000000	          1.75944955	          0.00000000	          0.00000000	          0.00000003	          0.00000000	
          1.12500000	        -87.60901643	        613.27706484	         23.42873785	         -0.20379202	          0.00000000	         -0.05984385	          0.00000373	         -0.00001781	          0.00000009	         -0.00000002	          0.00000000	         -0.00000001	          0.00000000	          1.77458161	          0.00000000	          0.00000000	          0.00000004	          0.00000000	
          1.13000000	        -84.91681154	        617.06818070	         24.47762004	         -0.20268900	          0.00000000	         -0.05992525	          0.00000517	         -0.00002468	          0.00000013	         -0.00000003	          0.00000000	         -0.00000001	          0.00000000	          1.78722816	          0.00000000	          0.00000000	          0.00000005	          0.00000000	
          1.13500000	        -81.95047971	        620.18541616	         25.02468852	         -0.20182567	          0.00000000	         -0.05995148	          0.00000678	         -0.00003236	          0.00000016	         -0.00000004	          0.00000000	         -0.00000001	          0.00000000	          1.79497492	          0.00000000	          0.00000000	          0.00000007	          0.00000000	
          1.14000000	        -78.72703483	        622.52769447	         25.13355062	         -0.20116452	          0.00000000	         -0.05992587	          0.00000846	         -0.00004035	          0.00000019	         -0.00000004	          0.00000000	         -0.00000001	          0.00000000	          1.79459263	          0.00000000	          0.00000000	          0.00000008	          0.00000000	
